<svg xmlns="http://www.w3.org/2000/svg" xmlns:xlink="http://www.w3.org/1999/xlink" width="500" zoomAndPan="magnify" viewBox="0 0 375 374.999991" height="500" preserveAspectRatio="xMidYMid meet" version="1.0"><defs><g/><clipPath id="58b9f8ef23"><path d="M 0 60 L 141 60 L 141 342.589844 L 0 342.589844 Z M 0 60 " clip-rule="nonzero"/></clipPath><clipPath id="019a774844"><path d="M 144.46875 218.140625 L 272 218.140625 L 272 339.640625 L 144.46875 339.640625 Z M 144.46875 218.140625 " clip-rule="nonzero"/></clipPath></defs><g clip-path="url(#58b9f8ef23)"><path fill="#718b75" d="M 267.097656 161.789062 C 264.683594 164.5625 263 168.523438 261.21875 172.710938 C 258.011719 180.257812 254.378906 188.808594 245.375 194.453125 C 237.773438 199.21875 229.882812 206.363281 224.265625 213.5625 C 219.636719 219.496094 214.664062 227.886719 217.246094 234.15625 C 218.644531 237.550781 220.363281 240.203125 221.878906 242.542969 C 224.625 246.78125 226.441406 249.578125 224.558594 253.878906 C 222.476562 258.640625 223.921875 260.472656 225.445312 261.816406 C 225.597656 261.957031 225.828125 262.160156 225.902344 262.261719 C 225.894531 262.355469 225.820312 262.738281 225.25 263.585938 C 223.949219 265.542969 218.65625 268.464844 213.988281 271.039062 C 205.574219 275.683594 200.4375 278.703125 200.855469 282.050781 C 201.121094 284.171875 202.164062 286.128906 203.269531 288.207031 C 204.574219 290.652344 205.921875 293.175781 205.941406 296.007812 C 205.164062 296.34375 204.347656 296.632812 203.496094 296.9375 C 199.804688 298.25 195.625 299.734375 194.152344 305.628906 L 194.015625 306.179688 C 192.351562 312.929688 188.457031 328.730469 156.140625 333.105469 C 155.992188 333.125 155.847656 333.167969 155.714844 333.226562 C 151.175781 335.261719 148.042969 337.074219 146.355469 338.640625 C 146.066406 338.417969 145.742188 338.195312 145.378906 337.96875 C 141.507812 335.542969 137.222656 331.617188 138.800781 326.695312 C 139.863281 323.375 137.113281 321.289062 134.203125 319.082031 C 130.949219 316.617188 127.265625 313.824219 126.4375 308.570312 C 125.835938 304.777344 126.375 302.097656 126.894531 299.507812 C 127.777344 295.109375 128.613281 290.953125 123.359375 283.574219 C 116.730469 274.265625 114.335938 260.933594 127.496094 251.441406 C 128.183594 250.945312 128.34375 249.984375 127.859375 249.289062 C 127.371094 248.597656 126.910156 247.941406 126.476562 247.320312 C 120.390625 238.660156 119.296875 237.101562 120.261719 229.839844 C 120.980469 224.457031 116.519531 221.121094 112.585938 218.179688 C 109.425781 215.820312 106.445312 213.589844 106.234375 210.734375 C 106.066406 208.46875 106.941406 207.757812 108.15625 206.777344 C 109.207031 205.921875 110.515625 204.859375 110.671875 202.800781 C 110.8125 200.882812 109.890625 198.457031 107.683594 194.945312 C 104.085938 189.214844 101.734375 187.9375 99.222656 187.9375 C 98.574219 187.9375 97.917969 188.023438 97.226562 188.136719 C 95.554688 188.414062 93.824219 188.703125 90.851562 187.015625 C 88.054688 185.425781 87.691406 183.980469 87.375 182.703125 C 87.152344 181.808594 86.875 180.691406 85.746094 180.019531 C 84.238281 179.125 81.882812 179.34375 75.65625 180.957031 C 73.996094 181.386719 72.554688 181.769531 71.28125 182.105469 C 62.1875 184.5 62.1875 184.5 54.761719 183.648438 C 53.953125 183.554688 53.0625 183.453125 52.070312 183.34375 C 45.816406 182.652344 43.972656 184 42.90625 186.554688 C 42.824219 186.746094 42.703125 187.039062 42.644531 187.097656 C 42.640625 187.101562 42.167969 187.386719 39.898438 186.855469 C 31.558594 184.898438 25.984375 180.546875 21.820312 172.742188 C 19.304688 168.027344 15.582031 166.074219 12.585938 164.503906 C 9.640625 162.960938 8.527344 162.21875 8.527344 160.558594 C 8.527344 154.683594 6.242188 149.476562 6.144531 149.261719 C 6.039062 149.015625 5.871094 148.808594 5.660156 148.648438 C 5.316406 148.394531 5.011719 148.183594 4.765625 148.015625 C 4.695312 147.96875 4.617188 147.917969 4.546875 147.867188 C 4.863281 147.316406 5.519531 146.398438 5.988281 145.742188 C 8.511719 142.210938 10.976562 134.730469 9.988281 132.121094 C 11.003906 131.28125 12.261719 130.085938 12.015625 128.476562 C 11.746094 126.726562 9.867188 125.980469 9.246094 125.738281 C 8.101562 125.285156 6.96875 125.039062 5.96875 124.820312 C 5.1875 124.648438 3.878906 124.359375 3.6875 124.09375 C 3.605469 123.898438 3.429688 122.605469 7.90625 116.558594 C 8.761719 115.40625 9.539062 114.351562 10.25 113.386719 C 16.796875 104.496094 17.636719 103.355469 23.367188 100.609375 C 32.082031 96.433594 36.039062 91.925781 35.472656 86.824219 C 35.199219 84.363281 35.664062 80.542969 37.882812 77.882812 C 39.296875 76.183594 41.214844 75.238281 43.585938 75.066406 C 46.097656 74.886719 47.5625 73.859375 48.414062 72.554688 C 48.910156 73.601562 49.996094 74.113281 50.792969 74.410156 C 53.550781 75.445312 57.957031 73.652344 63.539062 71.378906 C 68.839844 69.222656 74.847656 66.777344 80.042969 66.550781 C 84.550781 66.355469 90.46875 65.445312 95.691406 64.644531 C 100.335938 63.933594 106.574219 62.976562 108.394531 63.246094 C 108.488281 63.535156 108.59375 63.855469 108.707031 64.199219 C 109.523438 66.628906 110.753906 70.304688 108.640625 72.417969 C 107.359375 73.699219 106.246094 74.96875 106.703125 76.378906 C 107.175781 77.84375 108.757812 78.097656 111.152344 78.484375 C 111.964844 78.617188 112.882812 78.761719 113.925781 78.972656 C 116.636719 79.511719 118.425781 79.035156 119.675781 78.355469 C 119.558594 78.878906 119.546875 79.433594 119.746094 79.988281 C 119.933594 80.519531 120.398438 81.25 121.515625 81.699219 C 123.640625 82.546875 126.957031 83.691406 128.550781 84.230469 C 128.96875 86.128906 130.300781 88.550781 133.414062 88.550781 C 134.164062 88.550781 135.992188 89.152344 137.605469 89.6875 C 141.59375 91.003906 145.71875 92.367188 148.03125 90.695312 C 148.691406 90.214844 149.476562 89.285156 149.476562 87.554688 C 149.476562 86.148438 149.316406 84.945312 149.1875 83.980469 C 149.101562 83.363281 148.992188 82.542969 149.039062 82.207031 C 149.320312 82.101562 150.265625 81.949219 153.335938 82.359375 C 155.757812 82.679688 159.253906 83.625 162.957031 84.628906 C 172.515625 87.210938 183.351562 90.140625 188.65625 86.605469 C 189.183594 86.253906 189.914062 85.871094 190.394531 86.046875 C 191.589844 86.484375 192.539062 89.765625 193.300781 92.40625 C 194.171875 95.40625 195.066406 98.507812 196.785156 100.289062 C 198.84375 102.417969 201.449219 107.597656 203.546875 111.757812 C 205.613281 115.867188 206.9375 118.441406 208.039062 119.542969 C 209.28125 120.785156 210.660156 120.878906 211.667969 120.949219 C 212.917969 121.03125 213.605469 121.078125 214.375 123.90625 C 215.027344 126.292969 214.605469 127.351562 214.121094 128.574219 C 213.453125 130.253906 212.695312 132.160156 214.449219 136.191406 C 217.488281 143.179688 226.257812 151.988281 231.222656 155.738281 C 233.417969 157.394531 234.402344 159.5625 235.355469 161.660156 C 236.402344 163.964844 237.484375 166.347656 240.15625 167.109375 C 244.703125 168.40625 257.039062 164.742188 261.621094 161.878906 C 264.15625 160.292969 267.464844 159.375 268.75 159.433594 C 268.582031 159.824219 268.160156 160.5625 267.097656 161.789062 Z M 271.363281 157.382812 C 268.957031 154.566406 261.65625 158.195312 259.976562 159.242188 C 255.679688 161.929688 244.390625 165.085938 241.011719 164.121094 C 239.78125 163.769531 239.164062 162.53125 238.183594 160.375 C 237.175781 158.152344 235.917969 155.390625 233.09375 153.257812 C 228.203125 149.566406 219.996094 141.148438 217.296875 134.949219 C 216.0625 132.105469 216.457031 131.105469 217.007812 129.71875 C 217.582031 128.277344 218.296875 126.476562 217.371094 123.089844 C 216.125 118.511719 214.0625 117.996094 211.882812 117.847656 C 211.03125 117.789062 210.636719 117.746094 210.234375 117.34375 C 209.433594 116.542969 207.851562 113.402344 206.320312 110.363281 C 204.019531 105.785156 201.40625 100.601562 199.019531 98.132812 C 197.835938 96.90625 197.050781 94.179688 196.285156 91.539062 C 195.179688 87.71875 194.136719 84.105469 191.460938 83.128906 C 190.089844 82.628906 188.570312 82.929688 186.933594 84.019531 C 182.800781 86.773438 171.800781 83.800781 163.769531 81.628906 C 159.964844 80.601562 156.371094 79.628906 153.746094 79.277344 C 150.277344 78.816406 148.023438 78.789062 146.792969 80.019531 C 145.667969 81.148438 145.882812 82.726562 146.105469 84.394531 C 146.230469 85.316406 146.371094 86.355469 146.371094 87.554688 C 146.371094 87.746094 146.351562 88.074219 146.210938 88.175781 C 145.1875 88.917969 140.726562 87.445312 138.582031 86.734375 C 136.480469 86.042969 134.664062 85.441406 133.414062 85.441406 C 131.734375 85.441406 131.53125 83.394531 131.507812 82.996094 C 131.476562 82.351562 131.054688 81.792969 130.445312 81.589844 C 130.398438 81.574219 125.511719 79.941406 122.757812 78.847656 C 122.871094 78.554688 123.113281 78.117188 123.257812 77.855469 C 123.75 76.976562 124.300781 75.980469 123.898438 74.9375 C 123.675781 74.367188 123.210938 73.9375 122.585938 73.730469 C 121.132812 73.242188 120.074219 74.148438 119.371094 74.75 C 118.375 75.605469 117.34375 76.488281 114.535156 75.925781 C 113.433594 75.707031 112.484375 75.550781 111.644531 75.417969 C 111.1875 75.34375 110.703125 75.265625 110.289062 75.1875 C 110.433594 75.027344 110.613281 74.839844 110.839844 74.617188 C 114.308594 71.144531 112.582031 65.984375 111.65625 63.210938 C 111.480469 62.6875 111.328125 62.234375 111.246094 61.910156 C 110.746094 59.90625 108.070312 59.96875 105.136719 60.226562 C 102.492188 60.460938 98.960938 61 95.222656 61.574219 C 90.078125 62.363281 84.246094 63.257812 79.90625 63.445312 C 74.171875 63.699219 67.902344 66.25 62.367188 68.503906 C 58.011719 70.277344 53.5 72.109375 51.882812 71.503906 C 51.628906 71.40625 51.460938 71.324219 51.351562 71.265625 C 51.429688 71.09375 51.542969 70.878906 51.628906 70.71875 C 52.269531 69.507812 53.601562 66.996094 50.664062 64.476562 C 50.160156 64.046875 48.980469 63.035156 47.71875 63.621094 C 46.472656 64.199219 46.480469 65.613281 46.492188 66.980469 C 46.511719 70.273438 46.066406 71.773438 43.363281 71.96875 C 40.164062 72.199219 37.441406 73.554688 35.492188 75.894531 C 32.65625 79.300781 32.027344 83.953125 32.382812 87.167969 C 32.785156 90.792969 29.398438 94.273438 22.023438 97.808594 C 15.59375 100.890625 14.398438 102.515625 7.75 111.542969 C 7.039062 112.507812 6.261719 113.558594 5.410156 114.710938 C 1.269531 120.304688 0.0117188 123.140625 0.777344 125.183594 C 1.464844 127.011719 3.414062 127.441406 5.304688 127.851562 C 6.234375 128.058594 7.191406 128.265625 8.105469 128.628906 C 8.453125 128.765625 8.675781 128.886719 8.8125 128.972656 C 8.539062 129.300781 7.980469 129.753906 7.710938 129.972656 C 6.929688 130.605469 6.046875 131.320312 6.335938 132.46875 C 6.382812 132.660156 6.5625 133.183594 7.132812 133.519531 C 7.25 135.210938 5.679688 140.832031 3.460938 143.933594 C 1.878906 146.152344 1.085938 147.261719 1.304688 148.515625 C 1.488281 149.542969 2.265625 150.070312 3.015625 150.582031 C 3.152344 150.675781 3.300781 150.777344 3.457031 150.886719 C 3.941406 152.109375 5.417969 156.191406 5.417969 160.558594 C 5.417969 164.253906 8.328125 165.78125 11.144531 167.257812 C 13.894531 168.699219 17.015625 170.335938 19.078125 174.207031 C 23.640625 182.75 30.027344 187.734375 39.1875 189.878906 C 43.53125 190.898438 44.890625 189.867188 45.773438 187.75 C 46.144531 186.863281 46.5625 185.863281 51.726562 186.433594 C 52.71875 186.542969 53.605469 186.644531 54.40625 186.738281 C 62.339844 187.644531 62.503906 187.628906 72.074219 185.109375 C 73.339844 184.773438 74.78125 184.394531 76.433594 183.964844 C 82.203125 182.46875 83.738281 182.503906 84.128906 182.675781 C 84.199219 182.808594 84.292969 183.179688 84.359375 183.453125 C 84.734375 184.957031 85.359375 187.46875 89.316406 189.71875 C 93.246094 191.949219 95.84375 191.515625 97.738281 191.203125 C 99.957031 190.832031 101.292969 190.609375 105.054688 196.597656 C 106.8125 199.394531 107.65625 201.40625 107.570312 202.570312 C 107.523438 203.234375 107.175781 203.570312 106.199219 204.363281 C 104.863281 205.445312 102.847656 207.078125 103.136719 210.960938 C 103.449219 215.230469 107.148438 217.996094 110.726562 220.667969 C 114.292969 223.335938 117.660156 225.851562 117.183594 229.425781 C 116.054688 237.894531 117.722656 240.269531 123.933594 249.105469 C 124.101562 249.347656 124.277344 249.59375 124.453125 249.847656 C 118.785156 254.355469 115.523438 260.101562 115 266.554688 C 114.496094 272.710938 116.566406 279.394531 120.828125 285.375 C 125.300781 291.660156 124.691406 294.695312 123.847656 298.898438 C 123.300781 301.625 122.679688 304.710938 123.367188 309.054688 C 124.390625 315.542969 128.976562 319.019531 132.328125 321.558594 C 135.042969 323.617188 136.195312 324.636719 135.839844 325.746094 C 134.132812 331.070312 136.9375 336.347656 143.730469 340.601562 C 144.390625 341.011719 144.730469 341.308594 144.898438 341.484375 C 144.984375 341.984375 145.273438 342.355469 145.574219 342.5625 C 145.839844 342.746094 146.152344 342.835938 146.464844 342.835938 C 146.816406 342.835938 147.171875 342.71875 147.457031 342.488281 C 147.808594 342.203125 148.007812 341.796875 148.042969 341.347656 C 148.472656 340.8125 150.222656 339.113281 156.78125 336.15625 C 190.984375 331.449219 195.21875 314.269531 197.03125 306.925781 L 197.164062 306.382812 C 198.234375 302.105469 201.015625 301.117188 204.535156 299.863281 C 205.726562 299.441406 206.957031 299.003906 208.144531 298.410156 C 208.628906 298.167969 208.949219 297.699219 209 297.160156 C 209.371094 293.042969 207.589844 289.695312 206.011719 286.742188 C 205.046875 284.929688 204.132812 283.214844 203.941406 281.683594 C 203.941406 281.648438 204.039062 280.773438 207.222656 278.613281 C 209.46875 277.085938 212.53125 275.394531 215.488281 273.761719 C 220.953125 270.746094 226.113281 267.898438 227.835938 265.3125 C 229.972656 262.105469 228.785156 260.625 227.5 259.492188 C 226.695312 258.777344 226.054688 258.210938 227.40625 255.125 C 229.957031 249.292969 227.421875 245.382812 224.488281 240.851562 C 223.042969 238.628906 221.40625 236.105469 220.121094 232.972656 C 216.765625 224.832031 232.113281 206.4375 247.023438 197.085938 C 256.855469 190.921875 260.859375 181.5 264.078125 173.925781 C 265.835938 169.796875 267.351562 166.230469 269.441406 163.828125 C 270.464844 162.648438 273.1875 159.515625 271.363281 157.382812 " fill-opacity="1" fill-rule="nonzero"/></g><g fill="#718b75" fill-opacity="1"><g transform="translate(87.90634, 218.009872)"><g><path d="M 35.96875 0 L 35.96875 -2.671875 C 39.15625 -3.691406 41.226562 -5.828125 42.1875 -9.078125 C 43.144531 -12.335938 43.625 -17.410156 43.625 -24.296875 L 43.625 -130.5 L 37.6875 -130.5 C 29.144531 -130.5 22.445312 -129.0625 17.59375 -126.1875 C 12.75 -123.320312 8.539062 -118.0625 4.96875 -110.40625 L 2.671875 -110.78125 L 3.828125 -133.9375 L 103.515625 -133.9375 L 104.671875 -110.78125 L 102.375 -110.40625 C 98.800781 -118.0625 94.585938 -123.320312 89.734375 -126.1875 C 84.890625 -129.0625 78.195312 -130.5 69.65625 -130.5 L 64.09375 -130.5 L 64.09375 -24.296875 C 64.09375 -17.410156 64.570312 -12.335938 65.53125 -9.078125 C 66.488281 -5.828125 68.5625 -3.691406 71.75 -2.671875 L 71.75 0 Z M 35.96875 0 "/></g></g></g><g fill="#000000" fill-opacity="1"><g transform="translate(195.062586, 218.009872)"><g><path d="M 3.828125 0 L 3.828125 -2.671875 C 7.015625 -3.691406 9.085938 -5.828125 10.046875 -9.078125 C 11.003906 -12.335938 11.484375 -17.410156 11.484375 -24.296875 L 11.484375 -125.71875 C 11.484375 -131.320312 10.8125 -135.015625 9.46875 -136.796875 C 8.132812 -138.585938 6.253906 -139.992188 3.828125 -141.015625 L 3.828125 -143.703125 L 29.078125 -154.796875 L 31 -153.265625 L 31 -79.796875 C 36.226562 -84.128906 42.222656 -88.082031 48.984375 -91.65625 C 55.742188 -95.226562 62.820312 -97.015625 70.21875 -97.015625 C 79.019531 -97.015625 86.128906 -94.554688 91.546875 -89.640625 C 96.972656 -84.734375 99.6875 -76.664062 99.6875 -65.4375 L 99.6875 -24.296875 C 99.6875 -17.410156 100.164062 -12.335938 101.125 -9.078125 C 102.082031 -5.828125 104.15625 -3.691406 107.34375 -2.671875 L 107.34375 0 L 72.515625 0 L 72.515625 -2.671875 C 75.703125 -3.691406 77.773438 -5.828125 78.734375 -9.078125 C 79.691406 -12.335938 80.171875 -17.410156 80.171875 -24.296875 L 80.171875 -62 C 80.171875 -70.664062 78.351562 -77.390625 74.71875 -82.171875 C 71.082031 -86.960938 65.691406 -89.359375 58.546875 -89.359375 C 54.085938 -89.359375 49.6875 -88.273438 45.34375 -86.109375 C 41.007812 -83.941406 36.226562 -80.75 31 -76.53125 L 31 -24.296875 C 31 -17.410156 31.476562 -12.335938 32.4375 -9.078125 C 33.394531 -5.828125 35.46875 -3.691406 38.65625 -2.671875 L 38.65625 0 Z M 3.828125 0 "/></g></g></g><g clip-path="url(#019a774844)"><path fill="#718b75" d="M 267.097656 161.789062 C 264.683594 164.5625 263 168.523438 261.21875 172.710938 C 258.011719 180.257812 254.378906 188.808594 245.375 194.453125 C 237.773438 199.21875 229.882812 206.363281 224.265625 213.5625 C 219.636719 219.496094 214.664062 227.886719 217.246094 234.15625 C 218.644531 237.550781 220.363281 240.203125 221.878906 242.542969 C 224.625 246.78125 226.441406 249.578125 224.558594 253.878906 C 222.476562 258.640625 223.921875 260.472656 225.445312 261.816406 C 225.597656 261.957031 225.828125 262.160156 225.902344 262.261719 C 225.894531 262.355469 225.820312 262.738281 225.25 263.585938 C 223.949219 265.542969 218.65625 268.464844 213.988281 271.039062 C 205.574219 275.683594 200.4375 278.703125 200.855469 282.050781 C 201.121094 284.171875 202.164062 286.128906 203.269531 288.207031 C 204.574219 290.652344 205.921875 293.175781 205.941406 296.007812 C 205.164062 296.34375 204.347656 296.632812 203.496094 296.9375 C 199.804688 298.25 195.625 299.734375 194.152344 305.628906 L 194.015625 306.179688 C 192.351562 312.929688 188.457031 328.730469 156.140625 333.105469 C 155.992188 333.125 155.847656 333.167969 155.714844 333.226562 C 151.175781 335.261719 148.042969 337.074219 146.355469 338.640625 C 146.066406 338.417969 145.742188 338.195312 145.378906 337.96875 C 141.507812 335.542969 137.222656 331.617188 138.800781 326.695312 C 139.863281 323.375 137.113281 321.289062 134.203125 319.082031 C 130.949219 316.617188 127.265625 313.824219 126.4375 308.570312 C 125.835938 304.777344 126.375 302.097656 126.894531 299.507812 C 127.777344 295.109375 128.613281 290.953125 123.359375 283.574219 C 116.730469 274.265625 114.335938 260.933594 127.496094 251.441406 C 128.183594 250.945312 128.34375 249.984375 127.859375 249.289062 C 127.371094 248.597656 126.910156 247.941406 126.476562 247.320312 C 120.390625 238.660156 119.296875 237.101562 120.261719 229.839844 C 120.980469 224.457031 116.519531 221.121094 112.585938 218.179688 C 109.425781 215.820312 106.445312 213.589844 106.234375 210.734375 C 106.066406 208.46875 106.941406 207.757812 108.15625 206.777344 C 109.207031 205.921875 110.515625 204.859375 110.671875 202.800781 C 110.8125 200.882812 109.890625 198.457031 107.683594 194.945312 C 104.085938 189.214844 101.734375 187.9375 99.222656 187.9375 C 98.574219 187.9375 97.917969 188.023438 97.226562 188.136719 C 95.554688 188.414062 93.824219 188.703125 90.851562 187.015625 C 88.054688 185.425781 87.691406 183.980469 87.375 182.703125 C 87.152344 181.808594 86.875 180.691406 85.746094 180.019531 C 84.238281 179.125 81.882812 179.34375 75.65625 180.957031 C 73.996094 181.386719 72.554688 181.769531 71.28125 182.105469 C 62.1875 184.5 62.1875 184.5 54.761719 183.648438 C 53.953125 183.554688 53.0625 183.453125 52.070312 183.34375 C 45.816406 182.652344 43.972656 184 42.90625 186.554688 C 42.824219 186.746094 42.703125 187.039062 42.644531 187.097656 C 42.640625 187.101562 42.167969 187.386719 39.898438 186.855469 C 31.558594 184.898438 25.984375 180.546875 21.820312 172.742188 C 19.304688 168.027344 15.582031 166.074219 12.585938 164.503906 C 9.640625 162.960938 8.527344 162.21875 8.527344 160.558594 C 8.527344 154.683594 6.242188 149.476562 6.144531 149.261719 C 6.039062 149.015625 5.871094 148.808594 5.660156 148.648438 C 5.316406 148.394531 5.011719 148.183594 4.765625 148.015625 C 4.695312 147.96875 4.617188 147.917969 4.546875 147.867188 C 4.863281 147.316406 5.519531 146.398438 5.988281 145.742188 C 8.511719 142.210938 10.976562 134.730469 9.988281 132.121094 C 11.003906 131.28125 12.261719 130.085938 12.015625 128.476562 C 11.746094 126.726562 9.867188 125.980469 9.246094 125.738281 C 8.101562 125.285156 6.96875 125.039062 5.96875 124.820312 C 5.1875 124.648438 3.878906 124.359375 3.6875 124.09375 C 3.605469 123.898438 3.429688 122.605469 7.90625 116.558594 C 8.761719 115.40625 9.539062 114.351562 10.25 113.386719 C 16.796875 104.496094 17.636719 103.355469 23.367188 100.609375 C 32.082031 96.433594 36.039062 91.925781 35.472656 86.824219 C 35.199219 84.363281 35.664062 80.542969 37.882812 77.882812 C 39.296875 76.183594 41.214844 75.238281 43.585938 75.066406 C 46.097656 74.886719 47.5625 73.859375 48.414062 72.554688 C 48.910156 73.601562 49.996094 74.113281 50.792969 74.410156 C 53.550781 75.445312 57.957031 73.652344 63.539062 71.378906 C 68.839844 69.222656 74.847656 66.777344 80.042969 66.550781 C 84.550781 66.355469 90.46875 65.445312 95.691406 64.644531 C 100.335938 63.933594 106.574219 62.976562 108.394531 63.246094 C 108.488281 63.535156 108.59375 63.855469 108.707031 64.199219 C 109.523438 66.628906 110.753906 70.304688 108.640625 72.417969 C 107.359375 73.699219 106.246094 74.96875 106.703125 76.378906 C 107.175781 77.84375 108.757812 78.097656 111.152344 78.484375 C 111.964844 78.617188 112.882812 78.761719 113.925781 78.972656 C 116.636719 79.511719 118.425781 79.035156 119.675781 78.355469 C 119.558594 78.878906 119.546875 79.433594 119.746094 79.988281 C 119.933594 80.519531 120.398438 81.25 121.515625 81.699219 C 123.640625 82.546875 126.957031 83.691406 128.550781 84.230469 C 128.96875 86.128906 130.300781 88.550781 133.414062 88.550781 C 134.164062 88.550781 135.992188 89.152344 137.605469 89.6875 C 141.59375 91.003906 145.71875 92.367188 148.03125 90.695312 C 148.691406 90.214844 149.476562 89.285156 149.476562 87.554688 C 149.476562 86.148438 149.316406 84.945312 149.1875 83.980469 C 149.101562 83.363281 148.992188 82.542969 149.039062 82.207031 C 149.320312 82.101562 150.265625 81.949219 153.335938 82.359375 C 155.757812 82.679688 159.253906 83.625 162.957031 84.628906 C 172.515625 87.210938 183.351562 90.140625 188.65625 86.605469 C 189.183594 86.253906 189.914062 85.871094 190.394531 86.046875 C 191.589844 86.484375 192.539062 89.765625 193.300781 92.40625 C 194.171875 95.40625 195.066406 98.507812 196.785156 100.289062 C 198.84375 102.417969 201.449219 107.597656 203.546875 111.757812 C 205.613281 115.867188 206.9375 118.441406 208.039062 119.542969 C 209.28125 120.785156 210.660156 120.878906 211.667969 120.949219 C 212.917969 121.03125 213.605469 121.078125 214.375 123.90625 C 215.027344 126.292969 214.605469 127.351562 214.121094 128.574219 C 213.453125 130.253906 212.695312 132.160156 214.449219 136.191406 C 217.488281 143.179688 226.257812 151.988281 231.222656 155.738281 C 233.417969 157.394531 234.402344 159.5625 235.355469 161.660156 C 236.402344 163.964844 237.484375 166.347656 240.15625 167.109375 C 244.703125 168.40625 257.039062 164.742188 261.621094 161.878906 C 264.15625 160.292969 267.464844 159.375 268.75 159.433594 C 268.582031 159.824219 268.160156 160.5625 267.097656 161.789062 Z M 271.363281 157.382812 C 268.957031 154.566406 261.65625 158.195312 259.976562 159.242188 C 255.679688 161.929688 244.390625 165.085938 241.011719 164.121094 C 239.78125 163.769531 239.164062 162.53125 238.183594 160.375 C 237.175781 158.152344 235.917969 155.390625 233.09375 153.257812 C 228.203125 149.566406 219.996094 141.148438 217.296875 134.949219 C 216.0625 132.105469 216.457031 131.105469 217.007812 129.71875 C 217.582031 128.277344 218.296875 126.476562 217.371094 123.089844 C 216.125 118.511719 214.0625 117.996094 211.882812 117.847656 C 211.03125 117.789062 210.636719 117.746094 210.234375 117.34375 C 209.433594 116.542969 207.851562 113.402344 206.320312 110.363281 C 204.019531 105.785156 201.40625 100.601562 199.019531 98.132812 C 197.835938 96.90625 197.050781 94.179688 196.285156 91.539062 C 195.179688 87.71875 194.136719 84.105469 191.460938 83.128906 C 190.089844 82.628906 188.570312 82.929688 186.933594 84.019531 C 182.800781 86.773438 171.800781 83.800781 163.769531 81.628906 C 159.964844 80.601562 156.371094 79.628906 153.746094 79.277344 C 150.277344 78.816406 148.023438 78.789062 146.792969 80.019531 C 145.667969 81.148438 145.882812 82.726562 146.105469 84.394531 C 146.230469 85.316406 146.371094 86.355469 146.371094 87.554688 C 146.371094 87.746094 146.351562 88.074219 146.210938 88.175781 C 145.1875 88.917969 140.726562 87.445312 138.582031 86.734375 C 136.480469 86.042969 134.664062 85.441406 133.414062 85.441406 C 131.734375 85.441406 131.53125 83.394531 131.507812 82.996094 C 131.476562 82.351562 131.054688 81.792969 130.445312 81.589844 C 130.398438 81.574219 125.511719 79.941406 122.757812 78.847656 C 122.871094 78.554688 123.113281 78.117188 123.257812 77.855469 C 123.75 76.976562 124.300781 75.980469 123.898438 74.9375 C 123.675781 74.367188 123.210938 73.9375 122.585938 73.730469 C 121.132812 73.242188 120.074219 74.148438 119.371094 74.75 C 118.375 75.605469 117.34375 76.488281 114.535156 75.925781 C 113.433594 75.707031 112.484375 75.550781 111.644531 75.417969 C 111.1875 75.34375 110.703125 75.265625 110.289062 75.1875 C 110.433594 75.027344 110.613281 74.839844 110.839844 74.617188 C 114.308594 71.144531 112.582031 65.984375 111.65625 63.210938 C 111.480469 62.6875 111.328125 62.234375 111.246094 61.910156 C 110.746094 59.90625 108.070312 59.96875 105.136719 60.226562 C 102.492188 60.460938 98.960938 61 95.222656 61.574219 C 90.078125 62.363281 84.246094 63.257812 79.90625 63.445312 C 74.171875 63.699219 67.902344 66.25 62.367188 68.503906 C 58.011719 70.277344 53.5 72.109375 51.882812 71.503906 C 51.628906 71.40625 51.460938 71.324219 51.351562 71.265625 C 51.429688 71.09375 51.542969 70.878906 51.628906 70.71875 C 52.269531 69.507812 53.601562 66.996094 50.664062 64.476562 C 50.160156 64.046875 48.980469 63.035156 47.71875 63.621094 C 46.472656 64.199219 46.480469 65.613281 46.492188 66.980469 C 46.511719 70.273438 46.066406 71.773438 43.363281 71.96875 C 40.164062 72.199219 37.441406 73.554688 35.492188 75.894531 C 32.65625 79.300781 32.027344 83.953125 32.382812 87.167969 C 32.785156 90.792969 29.398438 94.273438 22.023438 97.808594 C 15.59375 100.890625 14.398438 102.515625 7.75 111.542969 C 7.039062 112.507812 6.261719 113.558594 5.410156 114.710938 C 1.269531 120.304688 0.0117188 123.140625 0.777344 125.183594 C 1.464844 127.011719 3.414062 127.441406 5.304688 127.851562 C 6.234375 128.058594 7.191406 128.265625 8.105469 128.628906 C 8.453125 128.765625 8.675781 128.886719 8.8125 128.972656 C 8.539062 129.300781 7.980469 129.753906 7.710938 129.972656 C 6.929688 130.605469 6.046875 131.320312 6.335938 132.46875 C 6.382812 132.660156 6.5625 133.183594 7.132812 133.519531 C 7.25 135.210938 5.679688 140.832031 3.460938 143.933594 C 1.878906 146.152344 1.085938 147.261719 1.304688 148.515625 C 1.488281 149.542969 2.265625 150.070312 3.015625 150.582031 C 3.152344 150.675781 3.300781 150.777344 3.457031 150.886719 C 3.941406 152.109375 5.417969 156.191406 5.417969 160.558594 C 5.417969 164.253906 8.328125 165.78125 11.144531 167.257812 C 13.894531 168.699219 17.015625 170.335938 19.078125 174.207031 C 23.640625 182.75 30.027344 187.734375 39.1875 189.878906 C 43.53125 190.898438 44.890625 189.867188 45.773438 187.75 C 46.144531 186.863281 46.5625 185.863281 51.726562 186.433594 C 52.71875 186.542969 53.605469 186.644531 54.40625 186.738281 C 62.339844 187.644531 62.503906 187.628906 72.074219 185.109375 C 73.339844 184.773438 74.78125 184.394531 76.433594 183.964844 C 82.203125 182.46875 83.738281 182.503906 84.128906 182.675781 C 84.199219 182.808594 84.292969 183.179688 84.359375 183.453125 C 84.734375 184.957031 85.359375 187.46875 89.316406 189.71875 C 93.246094 191.949219 95.84375 191.515625 97.738281 191.203125 C 99.957031 190.832031 101.292969 190.609375 105.054688 196.597656 C 106.8125 199.394531 107.65625 201.40625 107.570312 202.570312 C 107.523438 203.234375 107.175781 203.570312 106.199219 204.363281 C 104.863281 205.445312 102.847656 207.078125 103.136719 210.960938 C 103.449219 215.230469 107.148438 217.996094 110.726562 220.667969 C 114.292969 223.335938 117.660156 225.851562 117.183594 229.425781 C 116.054688 237.894531 117.722656 240.269531 123.933594 249.105469 C 124.101562 249.347656 124.277344 249.59375 124.453125 249.847656 C 118.785156 254.355469 115.523438 260.101562 115 266.554688 C 114.496094 272.710938 116.566406 279.394531 120.828125 285.375 C 125.300781 291.660156 124.691406 294.695312 123.847656 298.898438 C 123.300781 301.625 122.679688 304.710938 123.367188 309.054688 C 124.390625 315.542969 128.976562 319.019531 132.328125 321.558594 C 135.042969 323.617188 136.195312 324.636719 135.839844 325.746094 C 134.132812 331.070312 136.9375 336.347656 143.730469 340.601562 C 144.390625 341.011719 144.730469 341.308594 144.898438 341.484375 C 144.984375 341.984375 145.273438 342.355469 145.574219 342.5625 C 145.839844 342.746094 146.152344 342.835938 146.464844 342.835938 C 146.816406 342.835938 147.171875 342.71875 147.457031 342.488281 C 147.808594 342.203125 148.007812 341.796875 148.042969 341.347656 C 148.472656 340.8125 150.222656 339.113281 156.78125 336.15625 C 190.984375 331.449219 195.21875 314.269531 197.03125 306.925781 L 197.164062 306.382812 C 198.234375 302.105469 201.015625 301.117188 204.535156 299.863281 C 205.726562 299.441406 206.957031 299.003906 208.144531 298.410156 C 208.628906 298.167969 208.949219 297.699219 209 297.160156 C 209.371094 293.042969 207.589844 289.695312 206.011719 286.742188 C 205.046875 284.929688 204.132812 283.214844 203.941406 281.683594 C 203.941406 281.648438 204.039062 280.773438 207.222656 278.613281 C 209.46875 277.085938 212.53125 275.394531 215.488281 273.761719 C 220.953125 270.746094 226.113281 267.898438 227.835938 265.3125 C 229.972656 262.105469 228.785156 260.625 227.5 259.492188 C 226.695312 258.777344 226.054688 258.210938 227.40625 255.125 C 229.957031 249.292969 227.421875 245.382812 224.488281 240.851562 C 223.042969 238.628906 221.40625 236.105469 220.121094 232.972656 C 216.765625 224.832031 232.113281 206.4375 247.023438 197.085938 C 256.855469 190.921875 260.859375 181.5 264.078125 173.925781 C 265.835938 169.796875 267.351562 166.230469 269.441406 163.824219 C 270.464844 162.648438 273.1875 159.515625 271.363281 157.382812 " fill-opacity="1" fill-rule="nonzero"/></g><path fill="#718b75" d="M 262.347656 263.277344 C 262.195312 264.191406 260.378906 267.746094 258.777344 270.878906 C 253.777344 280.683594 250.03125 288.472656 251.011719 292.195312 C 251.765625 295.058594 251.285156 298.261719 249.816406 300.167969 C 248.941406 301.308594 247.796875 301.882812 246.417969 301.882812 C 241.566406 301.882812 238.550781 297.914062 238.550781 291.519531 C 238.550781 287.753906 239.871094 286.355469 241.152344 285.003906 C 242.28125 283.808594 243.5625 282.453125 243.25 279.964844 C 243.117188 278.898438 242.972656 277.925781 242.832031 276.988281 C 241.9375 270.9375 241.636719 268.898438 246.960938 266.925781 C 251.53125 265.234375 252.683594 262.433594 253.796875 259.722656 C 254.738281 257.433594 255.628906 255.273438 258.667969 253.167969 C 259.289062 252.734375 260.421875 252.070312 261.03125 252.457031 C 262.640625 253.476562 262.9375 259.722656 262.347656 263.277344 Z M 262.695312 249.832031 C 261.582031 249.125 259.675781 248.691406 256.898438 250.613281 C 253.105469 253.238281 251.894531 256.179688 250.925781 258.542969 C 249.910156 261.007812 249.175781 262.792969 245.878906 264.011719 C 238.195312 266.859375 238.851562 271.296875 239.757812 277.441406 C 239.894531 278.363281 240.035156 279.320312 240.167969 280.351562 C 240.289062 281.335938 239.9375 281.765625 238.894531 282.867188 C 237.4375 284.40625 235.441406 286.515625 235.441406 291.519531 C 235.441406 300.828125 240.957031 304.992188 246.417969 304.992188 C 248.777344 304.992188 250.804688 303.980469 252.277344 302.066406 C 254.335938 299.394531 255.019531 295.207031 254.015625 291.402344 C 253.257812 288.53125 258.449219 278.367188 261.546875 272.292969 C 263.933594 267.613281 265.191406 265.113281 265.410156 263.785156 C 265.429688 263.675781 267.058594 252.597656 262.695312 249.832031 " fill-opacity="1" fill-rule="nonzero"/></svg>